<svg
   width="102"
   height="86"
   viewBox="0 0 102 86"
   version="1.1"
   id="svg4"
   sodipodi:docname="89e27cabbcca8578c688656d469e1fe5.svg"
   xmlns:inkscape="http://www.inkscape.org/namespaces/inkscape"
   xmlns:sodipodi="http://sodipodi.sourceforge.net/DTD/sodipodi-0.dtd"
   xmlns="http://www.w3.org/2000/svg"
   xmlns:svg="http://www.w3.org/2000/svg">
  <defs
     id="defs8" />
  <sodipodi:namedview
     id="namedview6"
     pagecolor="#ffffff"
     bordercolor="#666666"
     borderopacity="1.0"
     inkscape:pageshadow="2"
     inkscape:pageopacity="0.0"
     inkscape:pagecheckerboard="0" />
  <path
     fill-rule="evenodd"
     clip-rule="evenodd"
     d="m 85.8445,42.0632 -0.7058,-0.2034 3.6227,-3.6427 c 8.6864,-8.7327 8.6864,-22.9444 0,-31.6771204 -6.9969,-7.03550395 -17.924,-8.57395 -26.571,-3.74025 l -4.8631,2.71627 C 48.6046,10.3878 40.6059,16.4555 33.5498,23.5506 c -5.304,5.3333 -10.047,11.2489 -14.132,17.5763 l -3.2623,0.9363 C 6.64316,44.7961 0,53.6512 0,63.5999 0,75.9521 9.99271,86 22.2771,86 H 79.7245 C 92.0073,86 102,75.9521 102,63.5999 102,53.6512 95.3568,44.7961 85.8445,42.0632 Z m -0.4787,3.3234 c -0.2073,4.3738 -0.5989,8.7741 -1.2125,13.1 -0.0346,0.2481 -0.4639,0.2481 -0.5001,0 -0.6548,-4.612 -1.0678,-9.3018 -1.2619,-13.9751 l 2.5484,0.7329 c 0.0816,0.0233 0.1611,0.0513 0.2406,0.0793 l 3e-4,2e-4 c 0.0614,0.0216 0.1228,0.0433 0.1852,0.0627 z M 64.0184,5.5743996 c -0.0774,0.03755 -0.1548,0.07506 -0.2306,0.11695 l -2.3147,1.29528 C 64.8917,10.1512 68.4831,13.1735 72.193,15.9708 c 0.1003,0.0761 0.2402,0.0662 0.329,-0.0231 0.0872,-0.0894 0.0971,-0.23 0.023,-0.3309 -2.6059,-3.4937 -5.4241,-6.8832904 -8.3557,-10.1272604 -0.0566,0.02948 -0.1137,0.05718 -0.1709,0.08486 z m -5.5675,3.10783 C 62.1871,12.1925 66.1338,15.5358 70.2171,18.616 c 0.6285,0.4747 1.3754,0.708 2.1223,0.708 0.9147,0 1.8261,-0.3507 2.5089,-1.0372 1.2388,-1.244 1.3786,-3.2457 0.329,-4.6551 -2.4316,-3.2605 -5.0572,-6.4167904 -7.7718,-9.4705204 6.6119,-2.03969 14.007,-0.32754 19.028,4.72121 7.4032,7.4441104 7.4032,19.5548104 0,26.9989104 l -4.9141,4.9413 -1.0233,-0.2945 C 71.3194,37.8912 61.8136,36.5298 52.2947,36.4156 49.3022,32.7333 46.1106,29.1618 42.7742,25.8053 l -3.315,-3.3333 c 1.6287,-1.4905 3.3002,-2.9297 5.0194,-4.3109 l 0.6219,0.6253 c 4.7413,4.7675 9.866,9.2356 15.2292,13.2802 0.6285,0.4748 1.377,0.7081 2.1223,0.7081 0.9147,0 1.8261,-0.3507 2.5088,-1.0373 1.2388,-1.2439 1.3803,-3.2456 0.3291,-4.655 -3.8843,-5.2092 -8.1683,-10.1835 -12.727,-14.8105 1.9199,-1.2638 3.8859,-2.4565104 5.888,-3.5896704 z M 69.0951,41.2758 c -1.0924,-0.1935 -2.1897,-0.3656 -3.2887,-0.5244 v 0.4665 c 0,6.5839 0.4706,13.229 1.3935,19.7501 0.0362,0.2481 0.4656,0.2481 0.5001,0 0.923,-6.5029 1.3918,-13.1265 1.3951,-19.6922 z M 49.959,39.697 h 7e-4 3e-4 c 0.3463,-0.0079 0.6928,-0.0159 1.04,-0.0159 0.3472,0 0.6937,0.008 1.04,0.0159 h 3e-4 c 0.2016,0.0046 0.4033,0.0092 0.6049,0.0123 v 4.8155 c 0,6.5839 -0.4706,13.229 -1.3951,19.75 -0.0346,0.2481 -0.464,0.2481 -0.5002,0 -0.9245,-6.5194 -1.3951,-13.1645 -1.3951,-19.7484 v -4.8171 c 0.2012,-0.0031 0.4023,-0.0077 0.6035,-0.0123 z M 62.656,29.0658 C 58.7372,23.812 54.4104,18.793 49.7941,14.1495 c -0.9098,0.6402 -1.8064,1.2986 -2.6948,1.9669 l 0.3274,0.3292 c 4.6311,4.6584 9.6374,9.0223 14.8772,12.9742 0.1004,0.0761 0.2418,0.0662 0.329,-0.0231 0.0872,-0.0893 0.0971,-0.23 0.0231,-0.3309 z m -25.5955,-4.3275 3.3874,3.4061 c 2.6257,2.6402 5.1296,5.4408 7.548,8.2994 -1.1285,0.0314 -2.2555,0.0843 -3.3824,0.1505 -2.221,-1.9636 -4.4058,-4.0115 -6.4935,-6.1108 L 34.7442,27.089 c 0.1592,-0.1657 0.3151,-0.3345 0.4708,-0.5033 l 10e-5,-10e-5 1e-4,-10e-5 3e-4,-3e-4 9e-4,-9e-4 v -10e-5 l 2e-4,-10e-5 1e-4,-2e-4 10e-5,-10e-5 1e-4,-10e-5 2e-4,-2e-4 c 0.2168,-0.2349 0.4334,-0.4697 0.6589,-0.6955 0.2402,-0.2405 0.4848,-0.4753 0.7291,-0.7099 0.1523,-0.1463 0.3045,-0.2924 0.4554,-0.4398 z m -9.7347,13.633 C 27.049,38.0794 26.7723,37.7876 26.4887,37.5025 l -0.306,-0.3077 c -0.635,0.8536 -1.2634,1.7088 -1.8722,2.5806 1.178,-0.3044 2.3592,-0.5856 3.5454,-0.8486 -0.1776,-0.1837 -0.3534,-0.3691 -0.5292,-0.5546 l -3e-4,-3e-4 -3e-4,-3e-4 z m 4.3567,-0.2203 c -0.9443,-1.0075 -1.8952,-2.01 -2.8675,-2.9876 l -0.6219,-0.6253 c 1.3754,-1.7287 2.81,-3.4078 4.289,-5.0455 l 3.3117,3.3317 c 1.3951,1.4028 2.8395,2.7742 4.3004,4.1257 -2.8181,0.2862 -5.6231,0.6914 -8.4117,1.201 z m 4.511,3.0669 v -0.4665 c -1.0989,0.1588 -2.1962,0.3309 -3.2903,0.5244 0.0033,6.5657 0.4722,13.1893 1.3951,19.6922 0.0362,0.2481 0.4656,0.2481 0.5002,0 0.9245,-6.5211 1.395,-13.1662 1.395,-19.7501 z m -16.5848,3.2953 c -0.1942,4.6732 -0.6071,9.3614 -1.2619,13.975 -0.0345,0.2482 -0.4639,0.2482 -0.5001,0 -0.6136,-4.3258 -1.0052,-8.7261 -1.2125,-13.0999 0.0625,-0.0195 0.124,-0.0412 0.1855,-0.0629 h 10e-5 c 0.0795,-0.0281 0.1589,-0.0561 0.2405,-0.0794 z m 2.6684,38.1783 h 57.4458 c 10.4698,0 18.9868,-8.5657 18.9868,-19.0916 0,-7.1282 -4.0109,-13.5864 -10.1063,-16.8502 -0.227,4.0794 -0.6218,8.172 -1.1943,12.205 -0.2485,1.7436 -1.7554,3.0587 -3.5059,3.0587 -1.7504,0 -3.2574,-1.3151 -3.5058,-3.0587 -0.7222,-5.0785 -1.1631,-10.2497 -1.3359,-15.3894 -2.2127,-0.6236 -4.4419,-1.1778 -6.6876,-1.6509 -0.0312,6.5111 -0.5001,13.0751 -1.4164,19.5217 -0.2485,1.7436 -1.7554,3.0587 -3.5059,3.0587 -1.7504,0 -3.2574,-1.3151 -3.5058,-3.057 -0.9493,-6.6766 -1.4297,-13.4805 -1.4297,-20.2199 v -0.885 c -2.1864,-0.2448 -4.381,-0.4152 -6.5806,-0.5194 v 4.7129 c 0,6.7394 -0.4804,13.5417 -1.4297,20.2182 -0.2484,1.7436 -1.7553,3.0587 -3.5058,3.0587 -1.7505,0 -3.2574,-1.3151 -3.5058,-3.057 -0.9493,-6.6766 -1.4297,-13.4805 -1.4297,-20.2199 v -4.7129 c -2.1996,0.1042 -4.3942,0.2746 -6.5806,0.5194 v 0.885 c 0,6.7394 -0.4804,13.5417 -1.4297,20.2182 -0.2484,1.7436 -1.7554,3.0587 -3.5058,3.0587 -1.7505,0 -3.2574,-1.3151 -3.5059,-3.0587 -0.9163,-6.4466 -1.3852,-13.0106 -1.4164,-19.5217 -2.2457,0.4747 -4.4749,1.0273 -6.6876,1.6509 -0.1744,5.1397 -0.6137,10.3093 -1.3359,15.3894 -0.2484,1.7436 -1.7554,3.0587 -3.5058,3.0587 -1.7505,0 -3.2574,-1.3151 -3.5059,-3.057 -0.5725,-4.033 -0.9673,-8.1273 -1.1944,-12.2067 -6.09527,3.2638 -10.10618,9.722 -10.10618,16.8502 0,10.5259 8.51698,19.0916 18.98678,19.0916 z"
     fill="#ffffff"
     id="path2" />
</svg>